<svg width="32" height="32" viewBox="0 0 32 32" fill="none" xmlns="http://www.w3.org/2000/svg">
  <!-- Gradient Definition -->
  <defs>
    <linearGradient id="logoGradient" x1="0%" y1="0%" x2="100%" y2="100%">
      <stop offset="0%" style="stop-color:#0ea5e9;stop-opacity:1" />
      <stop offset="100%" style="stop-color:#d946ef;stop-opacity:1" />
    </linearGradient>
  </defs>
  
  <!-- Background Rectangle -->
  <rect width="32" height="32" rx="6" fill="url(#logoGradient)"/>
  
  <!-- Network/Globe Icon (Same as Header/Footer) -->
  <path d="M28 16a12 12 0 01-12 12m12-12a12 12 0 00-12-12m12 12H4m12 12a12 12 0 01-12-12m12 12c2.21 0 4-5.37 4-12S18.21 4 16 4m0 24c-2.21 0-4-5.37-4-12S13.79 4 16 4m-12 12a12 12 0 0112-12" 
        stroke="white" 
        stroke-width="1.8" 
        stroke-linecap="round" 
        stroke-linejoin="round"/>
</svg>
